<svg width="470" height="516" viewBox="0 0 470 516" fill="none" xmlns="http://www.w3.org/2000/svg">
  <path
    d="M53 169.5L5 197.5M53 169.5L235 274M53 169.5V113.5M5 197.5V254.5L135.5 329V369.5M5 197.5L183.5 300.5V510M5 351L135.5 426.5V369.5M5 351V405L183.5 510M5 351L53 323.5L135.5 369.5M183.5 510L235 482.5M235 274V482.5M235 274L414 169.5M235 482.5L282.5 510M282.5 510L333.5 482.5V329L364.5 311.478M282.5 510V300.5L464.5 197.5M414 435.5V283.5L364.5 311.478M414 435.5L364.5 405V311.478M414 435.5L464.5 405V197.5M464.5 197.5L414 169.5M414 169.5V113.5M53 113.5L235 218L414 113.5M53 113.5L235 6L282.5 36.5M414 113.5L364.5 83.5L235 164L198.5 142.813M282.5 36.5L148 113.5L198.5 142.813M282.5 36.5V95.5L198.5 142.813"
    stroke="#7936EC" stroke-width="10" />
</svg>